<svg width="15" height="21" viewBox="0 0 15 21" fill="none" xmlns="http://www.w3.org/2000/svg">
<path d="M1.43503 0.830078C2.2246 0.830078 2.85638 1.36042 2.85638 2.02318C2.85638 2.68607 2.2246 3.21628 1.43503 3.21628C0.645331 3.21628 0.0135549 2.68607 0.0135549 2.02318C0.0135549 1.36042 0.645331 0.830078 1.43503 0.830078ZM2.73394 3.73742C2.70235 4.42803 2.70235 5.43717 2.70235 6.87118C2.70235 8.67715 2.70236 9.58007 2.84436 10.4298H0C0.141888 9.58007 0.141889 8.67715 0.141889 7.72106V6.44631C0.141889 5.49034 0.141888 4.58742 0 3.73742" fill="#2563eb"/>
<path d="M6.41265 3.73707C6.5233 3.9364 6.60226 4.16207 6.64963 4.32625C7.22874 3.87668 7.9311 3.57251 8.71738 3.57251C9.57083 3.57251 10.1083 3.98252 10.4876 4.41886C11.0535 3.99575 11.6777 3.57251 12.6976 3.57251C14.2464 3.57251 14.8313 4.48501 14.8313 5.79882V7.71491C14.8313 8.67302 14.8313 9.57795 14.9732 10.4295H12.1302C12.2708 9.57795 12.2708 8.67302 12.2708 7.71491V5.86534C12.2708 5.39965 12.1147 5.05365 11.6308 5.05365C11.1003 5.05365 10.8038 5.39965 10.8038 5.86534V7.71491C10.8038 8.67302 10.8037 9.57795 10.9442 10.4295H8.10269C8.24328 9.57795 8.24329 8.67302 8.24329 7.71491V5.83876C8.24329 5.39965 8.08714 5.05365 7.60337 5.05365C7.1664 5.05365 6.7762 5.3597 6.7762 5.759V7.7207C6.7762 8.67667 6.77621 9.57972 6.91668 10.4295H4.07373C4.21574 9.57972 4.21574 8.67667 4.21574 7.7207V6.44596C4.21574 5.48986 4.21574 4.58707 4.07373 3.73707" fill="#2563eb"/>
<path d="M0.00488281 11.6144C0.146771 12.459 0.146768 13.3591 0.146768 14.3171V18.1221C0.146768 19.0783 0.146771 19.9807 0.00488281 20.8301H2.80139C2.70735 20.4319 2.70735 19.41 2.70735 18.6138V18.3616C2.9269 18.4318 3.19359 18.4713 3.44449 18.4713C5.43917 18.4713 7.12202 16.7815 7.12202 14.489C7.12202 12.5962 5.8481 11.4498 4.38562 11.4498C3.61702 11.4498 3.05241 11.7432 2.62828 12.0365L2.45434 11.6144H0.00488281ZM2.70735 13.6947C2.70735 13.3072 2.91123 13.0131 3.42881 13.0131C4.18174 13.0131 4.47977 13.8016 4.47977 14.8435C4.47977 16.273 3.91505 17.1548 3.16224 17.1548C2.84842 17.1548 2.70735 17.0211 2.70735 16.7139" fill="#2563eb"/>
<path d="M8.66564 13.4042C9.47172 12.9114 10.262 12.7115 10.769 12.7115C11.5147 12.7115 11.8797 13.1111 11.8956 13.5775L10.5785 13.9371C9.07669 14.3501 7.92285 15.1762 7.92285 16.4018C7.92285 17.5234 8.91866 18.4164 10.4517 18.4164C11.2133 18.4164 11.8004 18.1631 12.2279 17.8967C12.2436 17.9471 12.3067 18.0936 12.4957 18.3068H15.0003C14.5903 17.321 14.5903 16.6015 14.5903 15.962V14.2968C14.5903 12.5143 13.598 11.4498 10.3252 11.4498C9.74041 11.4498 8.88696 11.5286 8.66564 11.5549V13.4042ZM12.1019 16.7792C12.0066 16.8991 11.6735 17.0725 11.3402 17.0725C10.8324 17.0725 10.4834 16.7125 10.4834 16.2457C10.4834 15.5789 11.1023 15.0587 12.1019 14.8454" fill="#2563eb"/>
</svg>
